<svg width="150" height="150" viewBox="0 0 150 150" fill="none" xmlns="http://www.w3.org/2000/svg">
<circle cx="75" cy="75" r="75" fill="#50E4BD"/>
<mask id="mask0" mask-type="alpha" maskUnits="userSpaceOnUse" x="0" y="0" width="150" height="150">
<circle cx="75" cy="75" r="75" fill="#58E3BE"/>
</mask>
<g mask="url(#mask0)">
<g clip-path="url(#clip0)">
<path d="M84.4205 47.0913C88.7034 43.3327 94.9301 42.6197 100.263 45.9121C104.098 48.2786 107.988 50.5564 111.765 53.0132C112.655 53.5923 113.52 54.2085 114.37 54.8441C115.189 55.4554 116.115 56.0507 116.83 56.7814C116.746 56.6959 116.393 56.675 116.272 56.6475C116.051 56.5975 115.83 56.5491 115.607 56.504C115.18 56.4169 114.752 56.3411 114.322 56.2749C113.46 56.1426 112.594 56.0523 111.724 56.0039C108.316 55.8103 104.88 56.2443 101.636 57.3154C100.028 57.8461 98.4725 58.5236 97.011 59.3786C96.3513 59.7641 95.7109 60.1852 95.0946 60.6368C94.9624 60.7336 94.8301 60.832 94.6994 60.932C94.643 60.9756 94.5865 61.0191 94.53 61.0627C94.1042 61.395 93.6864 61.7451 93.2799 62.1145C93.2702 62.1225 93.2621 62.1306 93.2524 62.1387C93.0508 62.3226 92.8508 62.5113 92.654 62.7049C92.6265 62.7323 92.5991 62.7597 92.5717 62.7871C92.3797 62.9775 92.1894 63.1711 92.0023 63.3711C90.231 65.2617 88.6679 67.2442 87.4919 69.5445C87.1984 70.1188 86.8435 70.6818 85.9175 70.4269C84.3367 66.4344 82.7187 62.3871 81.1297 58.3284C80.2393 56.0523 79.3924 53.76 78.5262 51.4742C79.3795 50.8419 80.2312 50.2111 81.0846 49.5788C82.1993 48.7561 83.3801 48.0028 84.4205 47.0913Z" fill="#1244D3"/>
<path d="M116.382 56.4362C116.165 56.4426 115.956 56.4281 115.765 56.362C113.678 55.6377 111.528 55.8426 109.39 55.7732C105.641 55.6522 102.146 56.762 98.8613 58.309C98.7032 58.3832 98.5499 58.4623 98.3935 58.5397C94.3252 60.6626 90.8134 63.855 88.4179 67.7797C88.2791 68.0088 88.142 68.2395 88.0081 68.475C87.8307 68.7896 87.6984 69.1461 87.521 69.4671C87.5113 69.4832 87.5016 69.4993 87.4935 69.5155C87.4774 69.5445 87.4613 69.5735 87.4435 69.6026C87.4193 69.6429 87.3919 69.6832 87.3661 69.722C87.3629 69.7252 87.3613 69.73 87.3596 69.7332C87.2709 69.8607 87.1677 69.9768 87.0467 70.0752C86.966 70.1414 86.8757 70.2011 86.7757 70.2511C86.6757 70.3011 86.5644 70.3414 86.4402 70.372C86.2434 70.2914 85.9336 70.2607 85.882 70.1285C83.43 63.8647 81.0007 57.5912 78.5681 51.3193C77.4969 51.7275 76.4258 52.1356 75.3402 52.5485C75.2853 52.5276 75.2305 52.5066 75.1756 52.4856V90.7153C78.81 90.7153 82.4412 90.7153 86.0966 90.7153C86.6112 91.7057 87.0854 92.6656 87.6 93.6012C95.5415 108.023 115.902 111.346 127.875 99.8311C142.626 85.6404 134.247 61.153 116.382 56.4362ZM110.303 99.6617C99.9873 99.6133 92.6669 91.1266 92.7911 81.9705C92.9282 71.9642 101.291 64.5809 110.302 64.5938C118.288 64.6051 127.98 70.4253 127.964 82.1189C127.951 92.9349 119.366 99.8053 110.303 99.6617Z" fill="#1D54F0"/>
<path d="M87.521 69.467C87.5113 69.4832 87.5016 69.4993 87.4935 69.5154C87.5032 69.4993 87.5129 69.4832 87.521 69.467Z" fill="#29676C"/>
<path d="M87.4436 69.6025C87.4194 69.6429 87.392 69.6832 87.3662 69.7219C87.392 69.6832 87.4178 69.6429 87.4436 69.6025Z" fill="#29676C"/>
<path d="M88.0082 68.475C88.1405 68.2395 88.2792 68.0088 88.4179 67.7798C88.2776 68.0088 88.1405 68.2411 88.0082 68.475Z" fill="#29676C"/>
<path d="M87.0452 70.0751C87.1661 69.9751 87.2694 69.859 87.3581 69.7332C87.2678 69.859 87.1661 69.9751 87.0452 70.0751Z" fill="#29676C"/>
<path d="M110.302 64.5938C101.292 64.5809 92.9282 71.9658 92.7911 81.9704C92.6669 91.1266 99.9873 99.6133 110.303 99.6617C119.364 99.8036 127.949 92.9333 127.964 82.1188C127.982 70.4252 118.29 64.6051 110.302 64.5938ZM107.184 81.6285C104.036 81.4784 101.087 79.0071 101.302 76.1002C101.552 72.7094 103.935 70.3527 107.311 70.1478C110.248 69.9687 112.786 72.8917 112.791 76.0583C113.013 79.2959 110.257 81.7753 107.184 81.6285Z" fill="#FEE287"/>
<path d="M107.311 70.1477C103.935 70.3542 101.552 72.7094 101.302 76.1002C101.087 79.007 104.036 81.4784 107.183 81.6284C110.256 81.7752 113.012 79.2958 112.791 76.0582C112.788 72.89 110.25 69.9687 107.311 70.1477Z" fill="white"/>
<path d="M55.9375 60.7705C55.8068 60.6705 55.6745 60.5721 55.5422 60.4753C55.6745 60.5737 55.8068 60.6705 55.9375 60.7705Z" fill="#87A8BB"/>
<path d="M38.7043 55.6619C39.4899 55.6119 40.2788 55.599 41.0676 55.6216C40.282 55.5893 39.4932 55.6006 38.7043 55.6619Z" fill="#87A8BB"/>
<path d="M57.357 61.9546C56.9489 61.5852 56.5327 61.2351 56.1068 60.9028C56.5359 61.2384 56.9537 61.5884 57.357 61.9546Z" fill="#87A8BB"/>
<path d="M57.9813 62.5435C57.7845 62.3499 57.5845 62.1612 57.3828 61.9773C57.5861 62.1628 57.7861 62.3515 57.9813 62.5435Z" fill="#87A8BB"/>
<path d="M58.0651 62.6257C58.2587 62.8177 58.4491 63.0113 58.6346 63.2097C58.4475 63.0097 58.2571 62.8161 58.0651 62.6257Z" fill="#87A8BB"/>
<path d="M66.2163 46.93C61.9351 43.1714 55.7084 42.4584 50.3737 45.7508C46.5393 48.1172 42.6484 50.395 38.8721 52.8518C37.9816 53.4309 37.117 54.0471 36.2669 54.6827C35.4474 55.2941 34.5215 55.8893 33.8068 56.6201C33.8907 56.5346 34.244 56.5136 34.365 56.4862C34.586 56.4362 34.807 56.3878 35.0296 56.3426C35.4571 56.2555 35.8846 56.1797 36.3153 56.1135C37.1767 55.9813 38.0429 55.8909 38.9124 55.8425C42.321 55.649 45.7569 56.0829 49.0009 57.154C50.6092 57.6847 52.1643 58.3622 53.6258 59.2172C54.2856 59.6027 54.926 60.0238 55.5422 60.4755C55.6745 60.5722 55.8068 60.6706 55.9374 60.7707C55.9939 60.8142 56.0503 60.8578 56.1068 60.9013C56.5327 61.2336 56.9505 61.5837 57.357 61.9531C57.3667 61.9611 57.3747 61.9692 57.3844 61.9773C57.586 62.1612 57.7861 62.3499 57.9829 62.5435C58.0103 62.5709 58.0377 62.5983 58.0651 62.6258C58.2571 62.8161 58.4475 63.0097 58.6346 63.2097C60.4058 65.1003 61.9689 67.0828 63.1449 69.3832C63.4385 69.9574 63.7934 70.5204 64.7193 70.2656C66.3002 66.2731 67.9182 62.2257 69.5071 58.1671C70.3975 55.8909 71.2444 53.5987 72.1107 51.3129C71.2573 50.6805 70.4056 50.0498 69.5523 49.4174C68.4376 48.5947 67.2568 47.8414 66.2163 46.93Z" fill="#0E38AC"/>
<path d="M72.1107 51.3145C71.2445 53.6003 70.3976 55.8925 69.5071 58.1687C67.9182 62.2273 66.3002 66.2746 64.7194 70.2672C63.7934 70.522 63.4385 69.959 63.1449 69.3848C61.6625 66.4827 59.4896 63.8114 57.036 61.674C54.5034 59.4672 51.5175 57.938 48.3186 56.9459C47.7653 56.7749 47.2072 56.6184 46.6458 56.4749C43.6518 55.7135 40.5175 55.3779 37.4445 55.8006C37.0203 55.8586 36.5976 55.9312 36.175 56.0038C35.9991 56.0345 35.8233 56.0651 35.6459 56.0942C34.5876 56.2765 33.5617 56.4975 32.5406 56.833C21.881 60.3399 15.1446 70.5382 14.901 81.5462C14.6106 94.6868 25.9058 106.006 38.7753 106.9C49.0558 107.614 58.6088 101.894 63.4192 92.9317C63.8192 92.1864 64.2467 91.4573 64.6629 90.7152C68.1828 90.7152 71.6784 90.7152 75.1708 90.7152V52.484C74.1449 52.092 73.127 51.7032 72.1107 51.3145ZM40.574 99.1164C32.6341 99.6552 23.2618 92.9301 23.2102 81.7381C23.1602 71.0915 32.1905 64.0647 40.8708 64.1534C49.6172 64.2421 58.4959 71.1415 58.3781 81.8753C58.2588 92.7252 49.2655 99.7697 40.574 99.1164Z" fill="#1244D3"/>
<path d="M56.1068 60.9029C56.0504 60.8593 55.9939 60.8158 55.9375 60.7722C55.9939 60.8142 56.0504 60.8577 56.1068 60.9029Z" fill="#87A8BB"/>
<path d="M57.3851 61.978C57.3768 61.9697 57.3669 61.9614 57.357 61.9531C57.3669 61.9631 57.3752 61.9697 57.3851 61.978Z" fill="#87A8BB"/>
<path d="M57.9813 62.5435C58.0087 62.5709 58.0362 62.5983 58.0636 62.6257C58.0378 62.5983 58.0103 62.5709 57.9813 62.5435Z" fill="#87A8BB"/>
<path d="M40.8708 64.1551C32.1889 64.0664 23.1586 71.0932 23.2102 81.7399C23.2635 92.9302 32.6342 99.657 40.574 99.1182C49.2656 99.7715 58.2588 92.7269 58.3782 81.877C58.4959 71.1416 49.6172 64.2438 40.8708 64.1551ZM40.5208 77.3893C39.3593 79.4783 37.7026 80.5768 35.3265 80.3203C32.6567 80.5058 31.0807 79.2379 30.0467 76.8989C28.9578 74.4388 29.8725 72.4579 31.3275 70.6609C32.7439 68.9106 36.8025 68.7445 38.827 70.1576C40.9402 71.6336 41.7371 75.2003 40.5208 77.3893Z" fill="#FED655"/>
<path d="M38.8253 70.1576C36.8025 68.7445 32.7438 68.9107 31.3259 70.6609C29.8725 72.4579 28.9562 74.4389 30.0451 76.8989C31.0807 79.2379 32.6551 80.5059 35.3248 80.3203C37.701 80.5768 39.3577 79.4799 40.5191 77.3893C41.7371 75.2003 40.9402 71.6336 38.8253 70.1576Z" fill="white"/>
</g>
</g>
<defs>
<clipPath id="clip0">
<rect width="120.554" height="63.3106" fill="white" transform="translate(14.8961 43.6489)"/>
</clipPath>
</defs>
</svg>
