<svg width="150" height="150" viewBox="0 0 150 150" fill="none" xmlns="http://www.w3.org/2000/svg">
<circle cx="75" cy="75" r="75" fill="#FEE287"/>
<mask id="mask0" mask-type="alpha" maskUnits="userSpaceOnUse" x="0" y="0" width="150" height="150">
<circle cx="75" cy="75" r="75" fill="#FEE287"/>
</mask>
<g mask="url(#mask0)">
<path d="M78.3081 60.352L85.7686 90.7504L90.7847 78.0587C90.9589 77.576 91.4143 77.2743 91.9433 77.2743H121.986C124.397 70.7642 124.973 63.9926 122.589 57.2545C113.957 32.87 86.8201 34.7004 76.9821 53.2318V59.3798C77.0156 59.3798 77.0424 59.3664 77.0759 59.3664C77.6719 59.3664 78.1809 59.7955 78.3081 60.352Z" fill="#FD74A0"/>
<path d="M86.6192 95.3901C86.4182 95.8929 85.916 96.1946 85.3601 96.1745C84.8043 96.1477 84.3489 95.7454 84.2283 95.2158L77.0692 65.9236L76.9754 66.3057V122.973C80.1766 121.069 110.909 102.316 120.948 79.7953H92.7938L86.6192 95.3901Z" fill="#FD74A0"/>
<path d="M66.9902 102.758H66.9634C66.3808 102.758 65.8785 102.329 65.7512 101.746L60.1324 74.626L57.1857 83.4827C57.0317 83.9856 56.5294 84.3409 56.0003 84.3409H35.3198C47.0932 104.79 73.9953 121.203 76.9755 122.979V66.3057L68.2225 101.773C68.0751 102.356 67.5661 102.758 66.9902 102.758Z" fill="#FD4B83"/>
<path d="M31.3687 57.2612C28.422 65.5816 29.9891 73.9623 33.9537 81.82H55.0896L59.2485 69.3831C59.4226 68.8534 59.9316 68.4981 60.5075 68.5249C61.0902 68.5785 61.5389 68.9808 61.6661 69.5373L67.1108 95.7722L75.8304 60.3252C75.971 59.8023 76.4331 59.4268 76.9689 59.3799V53.2318C67.1443 34.7071 40.0012 32.8768 31.3687 57.2612Z" fill="#FD4B83"/>
<path d="M-12.5976 81.8201C-13.3008 81.8201 -13.8566 82.3765 -13.8566 83.0805C-13.8566 83.7845 -13.3008 84.341 -12.5976 84.341H35.3198C34.8377 83.5096 34.3823 82.6648 33.9536 81.8201H-12.5976Z" fill="#0A39C2"/>
<path d="M75.837 60.3252L67.1174 95.7722L61.6727 69.5373C61.5455 68.9808 61.0901 68.5785 60.5141 68.5249C59.9315 68.4981 59.4292 68.8534 59.2551 69.3831L55.0962 81.82H33.9603C34.3889 82.6648 34.8443 83.5096 35.3265 84.3409H56.007C56.5361 84.3409 57.0384 83.9856 57.1924 83.4827L60.1391 74.626L65.7579 101.746C65.8852 102.329 66.3875 102.758 66.9701 102.758H66.9969C67.5795 102.758 68.0818 102.356 68.2292 101.773L76.9822 66.3057V59.3799C76.4397 59.4268 75.9776 59.8023 75.837 60.3252Z" fill="white"/>
<path d="M148.741 77.2744H121.98C121.665 78.1192 121.323 78.964 120.948 79.7953H148.741C149.444 79.7953 150 79.2388 150 78.5349C150 77.8309 149.444 77.2744 148.741 77.2744Z" fill="#0A39C2"/>
<path d="M91.9366 77.2743C91.4075 77.2743 90.9522 77.576 90.778 78.0587L85.7619 90.7505L78.3014 60.352C78.1742 59.7955 77.6719 59.3665 77.0692 59.3665C77.0357 59.3665 77.0089 59.3799 76.9754 59.3799V66.3057L77.0692 65.9235L84.2283 95.2157C84.3556 95.7454 84.8109 96.1476 85.3601 96.1744C85.916 96.2013 86.4182 95.8996 86.6192 95.39L92.7938 79.7952H120.948C121.323 78.9572 121.665 78.1191 121.98 77.2743H91.9366Z" fill="white"/>
</g>
</svg>
